<svg xmlns="http://www.w3.org/2000/svg" viewBox="0 0 73.64 73.64"><defs><style>.cls-1{fill:#e84142;}.cls-2{fill:#fff;fill-rule:evenodd;}</style></defs><g id="Layer_2" data-name="Layer 2"><g id="ELEMENTS"><circle class="cls-1" cx="36.82" cy="36.82" r="36.82" transform="translate(-5.37 67.35) rotate(-80.89)"/><path class="cls-2" d="M26.39,51.47H19.24c-1.5,0-2.24,0-2.69-.29a1.82,1.82,0,0,1-.83-1.42c0-.53.35-1.18,1.09-2.48l17.64-31.1c.75-1.32,1.13-2,1.61-2.23a1.84,1.84,0,0,1,1.65,0c.48.25.86.91,1.61,2.23L43,22.51v0a12.18,12.18,0,0,1,1.41,2.89,5.6,5.6,0,0,1,0,2.51A12.17,12.17,0,0,1,43,30.87L33.69,47.25l0,0a11.74,11.74,0,0,1-1.8,2.7,5.43,5.43,0,0,1-2.2,1.28A13.39,13.39,0,0,1,26.39,51.47Z"/><path class="cls-2" d="M44.43,51.47H54.67c1.51,0,2.27,0,2.72-.29a1.82,1.82,0,0,0,.83-1.43c0-.52-.34-1.15-1-2.37l-.07-.13L52,38.48l-.06-.1c-.72-1.22-1.09-1.84-1.55-2.08a1.82,1.82,0,0,0-1.64,0c-.47.25-.85.89-1.6,2.18L42,47.26l0,0c-.75,1.29-1.12,1.94-1.09,2.47a1.8,1.8,0,0,0,.82,1.42C42.16,51.47,42.92,51.47,44.43,51.47Z"/></g></g></svg>