<svg xmlns="http://www.w3.org/2000/svg" xmlns:xlink="http://www.w3.org/1999/xlink" viewBox="0 0 73.64 73.64"><defs><style>.cls-1{fill:url(#linear-gradient);}.cls-2{fill:#fff;}</style><linearGradient id="linear-gradient" x1="69.1" y1="3.91" x2="9.24" y2="64.95" gradientUnits="userSpaceOnUse"><stop offset="0" stop-color="#00ffa3"/><stop offset="1" stop-color="#dc1fff"/></linearGradient></defs><g id="Layer_2" data-name="Layer 2"><g id="ELEMENTS"><circle class="cls-1" cx="36.82" cy="36.82" r="36.82"/><path class="cls-2" d="M19.38,47.48a1.69,1.69,0,0,1,1.2-.49H61.81a.84.84,0,0,1,.59,1.44l-8.14,8.14a1.7,1.7,0,0,1-1.19.5H11.83a.85.85,0,0,1-.59-1.45Z"/><path class="cls-2" d="M19.38,17.07a1.77,1.77,0,0,1,1.2-.49H61.81A.84.84,0,0,1,62.4,18l-8.14,8.14a1.7,1.7,0,0,1-1.19.5H11.83a.85.85,0,0,1-.59-1.45Z"/><path class="cls-2" d="M54.26,32.18a1.7,1.7,0,0,0-1.19-.5H11.83a.85.85,0,0,0-.59,1.45l8.14,8.14a1.69,1.69,0,0,0,1.2.49H61.81a.84.84,0,0,0,.59-1.44Z"/></g></g></svg>