<svg xmlns="http://www.w3.org/2000/svg" viewBox="0 0 73.63 73.64"><defs><style>.cls-1{fill:#f7931a;}.cls-2{fill:#fff;}</style></defs><g id="Layer_2" data-name="Layer 2"><g id="ELEMENTS"><path class="cls-1" d="M72.53,45.73A36.81,36.81,0,1,1,45.72,1.1,36.81,36.81,0,0,1,72.53,45.73Z"/><path class="cls-2" d="M53.05,31.58c.73-4.9-3-7.54-8.1-9.29l1.66-6.64-4-1L41,21.1l-3.24-.76,1.62-6.5-4-1-1.65,6.64c-.88-.21-1.74-.4-2.58-.61v0L25.5,17.45l-1.07,4.31s3,.69,2.93.73a2.14,2.14,0,0,1,1.88,2.35l-1.89,7.59L24.71,43a1.47,1.47,0,0,1-1.85,1c0,.06-2.94-.73-2.94-.73l-2,4.62,5.26,1.32c1,.24,1.93.5,2.87.74l-1.67,6.71,4,1L30.07,51c1.11.3,2.18.57,3.22.83l-1.65,6.61,4,1,1.67-6.7c6.89,1.3,12.07.78,14.25-5.45,1.76-5-.08-7.91-3.71-9.8,2.64-.61,4.63-2.35,5.16-5.93ZM43.82,44.52c-1.25,5-9.7,2.31-12.43,1.62l2.21-8.89c2.74.68,11.52,2,10.22,7.27Zm1.25-13c-1.14,4.57-8.17,2.25-10.45,1.68l2-8.07C38.91,25.68,46.26,26.74,45.07,31.5Z"/></g></g></svg>