<svg xmlns="http://www.w3.org/2000/svg" viewBox="0 0 73.64 73.64"><defs><style>.cls-1{fill:#53ae94;}.cls-2{fill:#fff;}</style></defs><g id="Layer_2" data-name="Layer 2"><g id="ELEMENTS"><path class="cls-1" d="M36.82,0A36.82,36.82,0,1,1,0,36.82,36.82,36.82,0,0,1,36.82,0"/><path class="cls-2" d="M41.37,31.91V26.44H53.89V18.09H19.78v8.35H32.31v5.47c-10.18.47-17.84,2.48-17.84,4.9s7.66,4.43,17.84,4.9V59.26h9.06V41.71c10.16-.47,17.8-2.48,17.8-4.9s-7.64-4.42-17.8-4.89m0,8.3h0c-.26,0-1.57.1-4.49.1-2.34,0-4-.07-4.57-.1h0c-9-.4-15.7-2-15.7-3.84s6.71-3.44,15.7-3.84v6.12c.59,0,2.28.14,4.6.14,2.8,0,4.2-.12,4.46-.14V32.55c9,.4,15.68,2,15.68,3.84s-6.71,3.43-15.68,3.83"/></g></g></svg>