<svg xmlns="http://www.w3.org/2000/svg" viewBox="0 0 73.64 73.64"><defs><style>.cls-1{fill:#2775ca;}.cls-2{fill:#fff;}</style></defs><g id="Layer_2" data-name="Layer 2"><g id="ELEMENTS"><path class="cls-1" d="M36.82,73.64A36.82,36.82,0,1,0,0,36.82,36.72,36.72,0,0,0,36.82,73.64Z"/><path class="cls-2" d="M47,42.65c0-5.37-3.23-7.21-9.67-8-4.6-.61-5.52-1.84-5.52-4s1.53-3.52,4.6-3.52c2.76,0,4.3.92,5.06,3.22a1.16,1.16,0,0,0,1.08.76H45A1,1,0,0,0,46,30.07v-.16a7.68,7.68,0,0,0-6.9-6.29V19.94c0-.61-.46-1.07-1.23-1.22H35.6c-.62,0-1.08.46-1.23,1.22v3.53c-4.6.61-7.52,3.68-7.52,7.52,0,5.06,3.07,7.06,9.51,7.82C40.66,39.58,42,40.5,42,43S39.9,47.1,37,47.1c-4,0-5.37-1.69-5.83-4a1.11,1.11,0,0,0-1.07-.92H27.47a1,1,0,0,0-1.08,1.07v.16c.62,3.84,3.07,6.6,8.13,7.36v3.69c0,.61.46,1.07,1.23,1.22h2.3c.62,0,1.08-.46,1.23-1.22V50.78c4.6-.77,7.67-4,7.67-8.13Z"/><path class="cls-2" d="M29,58.76a23,23,0,0,1,0-43.11,1.55,1.55,0,0,0,.92-1.54V12A1.17,1.17,0,0,0,29,10.74a.91.91,0,0,0-.62.16,27.61,27.61,0,0,0,0,52.62.93.93,0,0,0,1.38-.62c.16-.15.16-.3.16-.61V60.14A2,2,0,0,0,29,58.76ZM45.26,10.89a.93.93,0,0,0-1.38.62c-.16.15-.16.3-.16.61v2.15a2,2,0,0,0,.92,1.53,23,23,0,0,1,0,43.11,1.55,1.55,0,0,0-.92,1.54V62.6a1.16,1.16,0,0,0,.92,1.22,1,1,0,0,0,.62-.15,27.73,27.73,0,0,0,0-52.78Z"/></g></g></svg>